<svg data-v-423bf9ae="" xmlns="http://www.w3.org/2000/svg" viewBox="0 0 100 100"
     class="iconAbove"><!----><!----><!---->
    <defs data-v-423bf9ae="">
        <linearGradient data-v-423bf9ae="" gradientTransform="rotate(25)" id="11dbc9ef-e6dd-4098-9a19-0bd7c9ef081b"
                        x1="0%" y1="0%" x2="100%" y2="0%">
            <stop data-v-423bf9ae="" offset="0%" style="stop-color: rgb(255, 16, 102); stop-opacity: 1;"></stop>
            <stop data-v-423bf9ae="" offset="100%" style="stop-color: rgb(255, 222, 242); stop-opacity: 1;"></stop>        </linearGradient>
    </defs>
    <g data-v-423bf9ae="" id="64be3a61-9281-479f-93de-599f83be5f69"
       fill="url(#11dbc9ef-e6dd-4098-9a19-0bd7c9ef081b)">
        <path
            d="M93.686 37.084h2.271v-8.336a.594.594 0 00-.595-.593h-6.609a9.1 9.1 0 014.933 8.929zm-9.068-8.139a7.32 7.32 0 00-7.321 7.321 7.32 7.32 0 1014.642 0 7.32 7.32 0 00-7.321-7.321zM47.84 56.775c0 5.565 4.511 10.078 10.08 10.078 5.565 0 10.078-4.513 10.078-10.078 0-5.567-4.513-10.079-10.078-10.079-5.568 0-10.08 4.512-10.08 10.079zM20.062 32.997a5.03 5.03 0 0010.057 0 5.028 5.028 0 00-10.057 0zm11.373 8.366a10.448 10.448 0 01-4.896 2.033v1.8c0 2.063-2.969 2.064-2.97.001v-1.811a10.497 10.497 0 01-6.754-3.927H3.633v33.997c0 .329.266.595.594.595h91.135a.595.595 0 00.595-.595V39.46h-2.812a9.108 9.108 0 01-17.055 0H46.066a8.145 8.145 0 011.058 5.987 15.593 15.593 0 0110.796-4.32c8.643 0 15.647 7.006 15.647 15.649 0 8.642-7.005 15.647-15.647 15.647-8.644 0-15.649-7.006-15.649-15.647 0-2.188.448-4.271 1.259-6.161a8.113 8.113 0 01-12.455-6.853c0-.835.126-1.642.36-2.399zm2.974-13.208a10.454 10.454 0 011.181 4.842 10.46 10.46 0 01-.756 3.917 8.081 8.081 0 014.354-1.266c1.711 0 3.299.53 4.607 1.436h31.757a9.103 9.103 0 014.932-8.929H34.409zm-16.943-2.377a10.472 10.472 0 017.625-3.28c1.884 0 3.652.496 5.181 1.365h9.135c.656 0 1.188.532 1.188 1.188v.727H74.04v-1.477h-.736v-2.834l2.852-2.852h5.229c.171-.292.604-.5 1.112-.5h.601c.509 0 .941.208 1.11.5h5.23l2.852 2.852v2.834h-.737v1.477h3.81a2.97 2.97 0 012.969 2.97v44.709a2.97 2.97 0 01-2.969 2.971h-3.747v2.896H74.062v-2.896H25.657v2.896H8.104v-2.896H4.227a2.97 2.97 0 01-2.969-2.971V28.748a2.97 2.97 0 012.969-2.97h7.079v-3.669c0-.624.481-1.135 1.091-1.184v-1.864c0-.656.532-1.188 1.188-1.188h.686c.656 0 1.188.531 1.188 1.188v1.86a1.188 1.188 0 011.167 1.188v3.669h.84zm-2.875 7.219c0-1.747.427-3.394 1.181-4.842H4.227a.593.593 0 00-.594.593v8.336h11.783a10.47 10.47 0 01-.825-4.087zm-1.31 21.087c0-.812.261-1.562.704-2.173l-4.202-5.1c-.756-.917.62-2.05 1.375-1.133l4.19 5.085a3.697 3.697 0 11-2.067 3.321zm37.506-24.516a.12.12 0 01.118-.119h9.303a.12.12 0 01.119.119v6.175a.12.12 0 01-.119.118h-9.303a.119.119 0 01-.118-.118v-6.175zm12.737 0a.12.12 0 01.118-.119h9.301c.066 0 .119.053.119.119v6.175a.118.118 0 01-.119.118h-9.301a.118.118 0 01-.118-.118v-6.175zm17.491 6.698a3.603 3.603 0 117.206 0 3.603 3.603 0 01-7.206 0z"></path>
    </g><!---->
</svg>
